<?xml version="1.0" encoding="UTF-8"?>
<svg width="40px" height="25px" id="Camada_1" data-name="Camada 1" xmlns="http://www.w3.org/2000/svg" viewBox="0 0 304.45 362.47">
  <defs>
    <style>
      .hot-icon {
        fill: #f0f8ff;
      }
    </style>
  </defs>
  <path class="hot-icon" d="m301.86,269.56c2.15-12.04,3.79-43.41,1.42-59.08-2.12-13.98-7.39-39.49-12.44-53.8-20.73-58.81-59.92-94.22-62.96-98.18-.15-.2,1.43,9.78,1.58,10.35,6,22.03-16.22,58.29-16.22,58.29C214.83,96.55,130.42,0,130.42,0c21.1,37.98-46.44,148.16-46.44,148.16.53-15.82-42.18-43.2-42.18-43.2,0,0,7.91,20.04-18.46,49.58S.12,241.9.12,241.9c0,0-.39,8.74,3.78,28.1,11.08,51.31,64.48,92.47,157.22,92.47,93.6,0,131.93-43.51,140.74-92.91Z"/>
</svg>